<?xml version="1.0" encoding="utf-8"?>
<!-- Generator: Adobe Illustrator 15.0.2, SVG Export Plug-In . SVG Version: 6.00 Build 0)  -->
<!DOCTYPE svg PUBLIC "-//W3C//DTD SVG 1.1//EN" "http://www.w3.org/Graphics/SVG/1.1/DTD/svg11.dtd">
<svg version="1.1" id="Ebene_1" xmlns="http://www.w3.org/2000/svg" xmlns:xlink="http://www.w3.org/1999/xlink" x="0px" y="0px"
	 width="39.5px" height="39.499px" viewBox="0 0 39.5 39.499" enable-background="new 0 0 39.5 39.499" xml:space="preserve">
<g>
	<rect x="0.001" width="39.499" height="39.499"/>
	<g>
		<path fill="#FFFFFF" d="M21.926,8.866h1.328v5.412c0,0.312,0,0.475,0.016,0.517c0.029,0.208,0.136,0.313,0.312,0.313
			c0.269,0,0.548-0.207,0.843-0.623V8.866h1.332v7.351h-1.332v-0.802c-0.531,0.609-1.035,0.904-1.521,0.904
			c-0.431,0-0.726-0.176-0.86-0.546c-0.072-0.225-0.117-0.575-0.117-1.094V8.866z"/>
		<path fill="#FFFFFF" d="M13.332,6.353l1.049,3.873l1.009-3.873h1.494l-1.779,5.869v3.996h-1.476v-3.996
			c-0.135-0.707-0.43-1.744-0.903-3.121c-0.312-0.916-0.636-1.834-0.949-2.748H13.332z"/>
		<path fill="#FFFFFF" d="M30.275,29.745c-0.269,1.16-1.215,2.016-2.356,2.145c-2.707,0.301-5.442,0.303-8.168,0.301
			c-2.726,0.002-5.463,0-8.168-0.301c-1.144-0.129-2.091-0.984-2.358-2.145c-0.38-1.65-0.38-3.455-0.38-5.154
			c0-1.701,0.005-3.504,0.386-5.156c0.267-1.16,1.215-2.016,2.356-2.145c2.705-0.301,5.442-0.303,8.166-0.301
			c2.728-0.002,5.463,0,8.17,0.301c1.142,0.129,2.09,0.984,2.358,2.145c0.379,1.652,0.375,3.455,0.375,5.156
			C30.656,26.29,30.656,28.095,30.275,29.745"/>
		<path fill="#FFFFFF" d="M19.498,14.092c0,0.683-0.207,1.022-0.635,1.022c-0.429,0-0.638-0.34-0.638-1.022v-3.091
			c0-0.68,0.209-1.02,0.638-1.02c0.428,0,0.635,0.34,0.635,1.02V14.092z M20.416,9.53c-0.367-0.502-0.887-0.754-1.553-0.754
			c-0.664,0-1.183,0.252-1.552,0.754c-0.285,0.373-0.418,0.946-0.418,1.732v2.574c0,0.781,0.133,1.361,0.418,1.729
			c0.369,0.501,0.888,0.753,1.552,0.753c0.666,0,1.186-0.252,1.553-0.753c0.279-0.368,0.414-0.948,0.414-1.729v-2.574
			C20.83,10.477,20.695,9.901,20.416,9.53"/>
	</g>
	<polygon points="10.471,20.546 12.021,20.546 12.021,28.937 13.489,28.937 13.489,20.546 15.067,20.546 15.067,19.173 
		10.471,19.173 	"/>
	<g>
		<path d="M22.738,26.856c0,0.656-0.191,0.98-0.572,0.98c-0.217,0-0.438-0.104-0.657-0.324v-4.434
			c0.219-0.217,0.44-0.319,0.657-0.319c0.379,0,0.572,0.335,0.572,0.991V26.856z M22.871,21.571c-0.483,0-0.938,0.266-1.362,0.789
			v-3.188h-1.32v9.765h1.32v-0.705c0.44,0.543,0.893,0.805,1.362,0.805c0.522,0,0.877-0.276,1.053-0.818
			c0.089-0.309,0.134-0.792,0.134-1.465v-2.896c0-0.689-0.045-1.17-0.134-1.463C23.748,21.849,23.394,21.571,22.871,21.571"/>
		<path d="M17.73,27.22c-0.293,0.414-0.567,0.617-0.834,0.617c-0.176,0-0.274-0.104-0.31-0.309c-0.01-0.043-0.01-0.203-0.01-0.512
			v-5.355h-1.32v5.752c0,0.514,0.045,0.861,0.119,1.082c0.131,0.367,0.424,0.541,0.849,0.541c0.483,0,0.983-0.293,1.506-0.895v0.795
			h1.319v-7.275H17.73V27.22z"/>
		<path d="M27.716,24.44h-1.319v-0.672c0-0.674,0.221-1.009,0.659-1.009s0.66,0.335,0.66,1.009V24.44z M27.068,21.571
			c-0.674,0-1.196,0.248-1.578,0.746c-0.278,0.369-0.405,0.938-0.405,1.715v2.549c0,0.771,0.142,1.346,0.42,1.709
			c0.381,0.498,0.908,0.746,1.597,0.746c0.69,0,1.229-0.26,1.594-0.789c0.16-0.232,0.265-0.498,0.31-0.789
			c0.01-0.133,0.026-0.424,0.026-0.85v-0.191h-1.344c0,0.527-0.017,0.82-0.029,0.893c-0.075,0.352-0.264,0.527-0.59,0.527
			c-0.451,0-0.674-0.336-0.674-1.008v-1.291h2.637v-1.506c0-0.777-0.131-1.346-0.407-1.715
			C28.257,21.819,27.73,21.571,27.068,21.571"/>
	</g>
</g>
</svg>
