<?xml version="1.0" encoding="utf-8"?>
<!-- Generator: Adobe Illustrator 15.0.2, SVG Export Plug-In . SVG Version: 6.00 Build 0)  -->
<!DOCTYPE svg PUBLIC "-//W3C//DTD SVG 1.1//EN" "http://www.w3.org/Graphics/SVG/1.1/DTD/svg11.dtd">
<svg version="1.1" id="Ebene_1" xmlns="http://www.w3.org/2000/svg" xmlns:xlink="http://www.w3.org/1999/xlink" x="0px" y="0px"
	 width="39.5px" height="39.499px" viewBox="0 0 39.5 39.499" enable-background="new 0 0 39.5 39.499" xml:space="preserve">
<rect x="0.103" width="39.5" height="39.499"/>
<g>
	<g>
		<path fill="#FFFFFF" d="M17.35,29.853v-1.301h1.845V28.43c0-1.301-0.601-2.255-4.734-1.538l-6.799,1.211l-3.912,5.427l9.388-1.666
			c2.812-0.482,5.282-0.584,6.058,1.654v-3.665H17.35z"/>
		<path fill="#FFFFFF" d="M20.478,33.516c0-1.77,1.045-2.985,3.18-5.12l1.505-1.504l6.875,1.211l3.918,5.42l-9.014-1.555
			C23.884,31.381,21.293,31.176,20.478,33.516z"/>
	</g>
	<g>
		<path fill="#FFFFFF" d="M20.858,28.55c0.681-1.461,2.131-2.783,2.965-3.616l0.594-0.604c2.525-2.524,3.011-3.569,3.163-5.308
			c0.007-0.091,0.137,0.341,0.176,0.646c0.13,1.024,0.055,1.769-0.294,2.794c-0.52,1.533-1.753,2.755-3.353,4.355l-1.74,1.732
			H20.858z"/>
		<path fill="#FFFFFF" d="M22.324,7.379c0-0.014,0.043-0.021,0.043,0v2.013c0,1.822-2.341,3.922-3.273,4.85l-3.429,3.438
			c-1.186,1.186-3.559,3.525-2.562,5.784c0.033,0.075,0.063,0.141-0.062,0.05c-0.254-0.18-0.639-0.812-0.74-1.968
			c-0.183-2.058,1.221-3.901,2.952-5.633l3.271-3.275C21.84,9.321,22.163,8.736,22.324,7.379z"/>
		<path fill="#FFFFFF" d="M19.094,17.687c0.933-0.926,3.273-3.027,3.273-4.848v-2.014c0-0.021-0.043-0.014-0.043,0
			c-0.161,1.356-0.484,1.941-3.802,5.259l-3.038,3.042c-1.104,1.104-2.115,2.262-2.069,4.13c0.029,1.145,0.604,2.094,1.47,2.316
			c0.356,0.078,0.335,0.031,0.25-0.006c-1.224-0.576-1.135-2.785,0.842-4.764L19.094,17.687z"/>
		<path fill="#FFFFFF" d="M15.279,14.641c-2.524,2.525-3.01,3.569-3.162,5.308c-0.008,0.091-0.138-0.34-0.176-0.646
			c-0.131-1.024-0.056-1.768,0.293-2.795c0.521-1.533,1.754-2.754,3.353-4.354l2.936-2.939c3.317-3.317,3.641-3.902,3.802-5.259
			c0-0.015,0.043-0.022,0.043,0V5.97c0,1.82-2.341,3.921-3.273,4.848L15.279,14.641z"/>
		<path fill="#FFFFFF" d="M20.521,31.854c-0.002,0.016-0.043,0.016-0.043,0v-2.001h0.838C20.842,30.531,20.599,31.188,20.521,31.854
			z"/>
		<path fill="#FFFFFF" d="M20.527,28.552c-0.003,0.016-0.044,0.016-0.044,0v-2.037c0-1.53,1.5-3.184,2.986-4.661l0.965-0.964
			c0.778-0.778,3.155-3.123,2.159-5.382c-0.032-0.075-0.063-0.14,0.062-0.05c0.254,0.181,0.638,0.812,0.741,1.967
			c0.182,2.06-1.222,3.902-2.953,5.635l-0.892,0.895C21.403,26.104,20.688,27.067,20.527,28.552z"/>
		<path fill="#FFFFFF" d="M20.523,25.019c-0.001,0.016-0.042,0.016-0.042,0v-2.067c0-1.459,1.446-3.034,2.148-3.736l1.089-1.087
			c1.979-1.977,2.066-4.187,0.842-4.764c-0.084-0.036-0.106-0.083,0.251-0.005c0.866,0.224,1.441,1.172,1.471,2.316
			c0.046,1.869-0.949,3.019-2.053,4.122l-0.883,0.883C21.501,22.526,20.692,23.605,20.523,25.019z"/>
	</g>
</g>
</svg>
