<?xml version="1.0" encoding="utf-8"?>
<!-- Generator: Adobe Illustrator 15.0.2, SVG Export Plug-In . SVG Version: 6.00 Build 0)  -->
<!DOCTYPE svg PUBLIC "-//W3C//DTD SVG 1.1//EN" "http://www.w3.org/Graphics/SVG/1.1/DTD/svg11.dtd">
<svg version="1.1" id="Ebene_1" xmlns="http://www.w3.org/2000/svg" xmlns:xlink="http://www.w3.org/1999/xlink" x="0px" y="0px"
	 width="39.5px" height="39.5px" viewBox="0 0 39.5 39.5" enable-background="new 0 0 39.5 39.5" xml:space="preserve">
<path fill="#FFFFFF" d="M21.926,8.866h1.328v5.412c0,0.312,0,0.475,0.016,0.517c0.029,0.208,0.137,0.313,0.312,0.313
	c0.27,0,0.548-0.207,0.843-0.623V8.866h1.332v7.351h-1.332v-0.802c-0.53,0.609-1.034,0.904-1.521,0.904
	c-0.432,0-0.727-0.176-0.86-0.546c-0.071-0.225-0.117-0.575-0.117-1.094L21.926,8.866L21.926,8.866z"/>
<path fill="#FFFFFF" d="M13.332,6.353l1.049,3.873l1.009-3.873h1.494l-1.779,5.869v3.996h-1.476v-3.996
	c-0.135-0.707-0.43-1.744-0.903-3.121c-0.312-0.916-0.636-1.834-0.949-2.748H13.332z"/>
<path fill="#FFFFFF" d="M19.498,14.092c0,0.683-0.207,1.022-0.635,1.022c-0.429,0-0.638-0.34-0.638-1.022v-3.091
	c0-0.68,0.209-1.02,0.638-1.02c0.428,0,0.635,0.34,0.635,1.02V14.092z M20.416,9.53c-0.367-0.502-0.887-0.754-1.553-0.754
	c-0.664,0-1.183,0.252-1.552,0.754c-0.285,0.373-0.418,0.946-0.418,1.732v2.574c0,0.781,0.133,1.361,0.418,1.729
	c0.369,0.501,0.888,0.753,1.552,0.753c0.666,0,1.186-0.252,1.553-0.753c0.279-0.368,0.414-0.948,0.414-1.729v-2.574
	C20.83,10.477,20.695,9.901,20.416,9.53"/>
<g>
	<path fill="#FFFFFF" d="M27.057,22.759c-0.438,0-0.66,0.335-0.66,1.009v0.672h1.319v-0.672
		C27.716,23.094,27.494,22.759,27.057,22.759z"/>
	<path fill="#FFFFFF" d="M30.281,19.435c-0.268-1.161-1.217-2.016-2.358-2.145c-2.707-0.301-5.442-0.303-8.17-0.301
		c-2.724-0.002-5.461,0-8.166,0.301c-1.141,0.129-2.089,0.985-2.356,2.145c-0.381,1.652-0.386,3.455-0.386,5.156
		c0,1.699,0,3.504,0.38,5.154c0.267,1.16,1.214,2.016,2.358,2.145c2.705,0.301,5.442,0.303,8.168,0.301
		c2.726,0.002,5.461,0,8.168-0.301c1.142-0.129,2.087-0.985,2.356-2.145c0.381-1.65,0.381-3.455,0.381-5.154
		C30.656,22.89,30.66,21.087,30.281,19.435z M15.067,20.546h-1.578v8.391h-1.468v-8.391h-1.55v-1.374h4.596V20.546z M19.049,28.936
		H17.73v-0.795c-0.523,0.603-1.023,0.896-1.506,0.896c-0.425,0-0.718-0.175-0.849-0.541c-0.074-0.222-0.119-0.568-0.119-1.082
		v-5.752h1.32v5.354c0,0.31,0,0.469,0.01,0.512c0.036,0.205,0.134,0.31,0.31,0.31c0.267,0,0.541-0.203,0.834-0.617v-5.559h1.319
		V28.936z M24.059,26.753c0,0.674-0.045,1.156-0.135,1.466c-0.176,0.542-0.531,0.817-1.053,0.817c-0.469,0-0.922-0.262-1.362-0.805
		v0.705h-1.32v-9.765h1.32v3.188c0.425-0.522,0.88-0.789,1.362-0.789c0.523,0,0.877,0.278,1.053,0.824
		c0.09,0.293,0.135,0.774,0.135,1.463V26.753z M29.032,25.539h-2.638v1.291c0,0.672,0.224,1.008,0.674,1.008
		c0.326,0,0.516-0.176,0.591-0.527c0.012-0.073,0.028-0.366,0.028-0.893h1.345v0.19c0,0.427-0.017,0.718-0.026,0.851
		c-0.045,0.291-0.15,0.557-0.311,0.789c-0.364,0.528-0.903,0.789-1.594,0.789c-0.688,0-1.215-0.248-1.597-0.746
		c-0.278-0.363-0.42-0.938-0.42-1.709v-2.55c0-0.776,0.127-1.346,0.405-1.715c0.382-0.498,0.904-0.746,1.578-0.746
		c0.662,0,1.188,0.248,1.557,0.746c0.275,0.369,0.407,0.938,0.407,1.715V25.539z"/>
	<path fill="#FFFFFF" d="M22.166,22.759c-0.217,0-0.438,0.102-0.657,0.318v4.435c0.22,0.22,0.44,0.323,0.657,0.323
		c0.381,0,0.572-0.323,0.572-0.979V23.75C22.738,23.094,22.545,22.759,22.166,22.759z"/>
</g>
</svg>
