<?xml version="1.0" encoding="utf-8"?>
<!-- Generator: Adobe Illustrator 15.0.2, SVG Export Plug-In . SVG Version: 6.00 Build 0)  -->
<!DOCTYPE svg PUBLIC "-//W3C//DTD SVG 1.1//EN" "http://www.w3.org/Graphics/SVG/1.1/DTD/svg11.dtd">
<svg version="1.1" id="Ebene_1" xmlns="http://www.w3.org/2000/svg" xmlns:xlink="http://www.w3.org/1999/xlink" x="0px" y="0px"
	 width="39.5px" height="39.5px" viewBox="0 0 39.5 39.5" enable-background="new 0 0 39.5 39.5" xml:space="preserve">
<g>
	<g>
		<path fill="#FFFFFF" d="M9.084,13c-0.377,0-0.613,0.031-0.709,0.094c-0.094,0.062-0.109,0.134-0.047,0.213
			s0.221,0.212,0.473,0.401c0.125,0.095,0.219,0.173,0.283,0.235l10.666,8.118l10.666-8.071l0.236-0.235
			c0.252-0.189,0.416-0.322,0.494-0.401c0.08-0.078,0.071-0.157-0.021-0.236C31.029,13.039,30.795,13,30.416,13H9.084z"/>
		<path fill="#FFFFFF" d="M7.668,14.888v11.988c0,0.346,0.141,0.699,0.424,1.061c0.283,0.361,0.566,0.543,0.85,0.543h21.615
			c0.285,0,0.568-0.182,0.853-0.543c0.282-0.361,0.424-0.715,0.424-1.061V14.888l-12.082,9.25L7.668,14.888z"/>
	</g>
</g>
</svg>
