<?xml version="1.0" encoding="utf-8"?>
<!-- Generator: Adobe Illustrator 15.0.2, SVG Export Plug-In . SVG Version: 6.00 Build 0)  -->
<!DOCTYPE svg PUBLIC "-//W3C//DTD SVG 1.1//EN" "http://www.w3.org/Graphics/SVG/1.1/DTD/svg11.dtd">
<svg version="1.1" id="Ebene_1" xmlns="http://www.w3.org/2000/svg" xmlns:xlink="http://www.w3.org/1999/xlink" x="0px" y="0px"
	 width="277px" height="246px" viewBox="0 0 277 246" enable-background="new 0 0 277 246" xml:space="preserve">
<g>
	<g>
		<path fill="#FFFFFF" d="M117.059,73.667c0.423-0.461,0.838-0.908,1.265-1.371c4.989-5.428,10.149-11.041,15.699-16.287
			l0.834-0.789c9.107-8.615,18.42-17.413,31.429-22.626c-2.473-4.41-6.009-8.311-10.528-11.278
			c-15.055-9.886-35.265-5.694-45.148,9.358C101.398,44.698,104.414,63.212,117.059,73.667z"/>
	</g>
	<path fill-rule="evenodd" clip-rule="evenodd" fill="#FFFFFF" d="M155.097,63.08c7.087-6.938,22.219-25.015,36.979-25.015
		c18.99,0,40.345,19.195,55.407,42.269C245.649,68,242.315,60,234.149,50.666c-11.073-12.656-22.334-19.794-41.88-19.794
		c-27.838,0-41.55,13.482-56.187,27.318c-11.11,10.506-20.639,22.496-30.965,32.053c-22.243,20.582-39.054,46.338-74.426,51.065
		c6.159,1.979,11.967,2.844,17.438,2.844c18.563,0,33.296-9.959,45.036-20.227C115.765,104.156,133.921,83.806,155.097,63.08z"/>
	<g>
		<path fill="#FFFFFF" d="M34.427,185.121l-1.796-4.932h-7.608l-1.764,4.932H20.32l7.249-19.234l-0.719-1.762h3.363l7.608,20.996
			H34.427z M28.81,169.512l-2.971,8.295h5.942L28.81,169.512z"/>
		<path fill="#FFFFFF" d="M46.333,185.545c-2.514,0-4.702-0.424-6.27-0.85v-20.213c1.698-0.326,3.625-0.652,6.303-0.652
			c6.727,0,10.775,4.213,10.775,10.906C57.142,181.137,52.896,185.545,46.333,185.545z M45.55,166.182h-2.384v16.49
			c0.653,0.162,1.992,0.457,3.167,0.457c4.768,0,7.479-4.082,7.479-8.359C53.812,169.707,50.84,166.182,45.55,166.182z"/>
		<path fill="#FFFFFF" d="M66.756,184.99l-2.678,0.457l-6.987-21.291h3.266l5.354,16.883l5.715-16.883h2.775L66.756,184.99z"/>
		<path fill="#FFFFFF" d="M86.992,185.121H76.347v-20.965h11.364l-0.979,2.416h-7.282v6.729h6.857l-0.947,2.383h-5.91v6.922h8.849
			L86.992,185.121z"/>
		<path fill="#FFFFFF" d="M106.685,185.121L94.7,170.066v15.055h-2.612V166.77l-2.09-2.613h3.919l11.56,14.467v-14.467h2.645v20.965
			H106.685z"/>
		<path fill="#FFFFFF" d="M125.432,166.703h-5.715v18.418h-3.102v-18.418h-6.237v-2.547h16.033L125.432,166.703z"/>
		<path fill="#FFFFFF" d="M141.267,184.566c-0.979,0.555-2.71,1.012-4.637,1.012c-6.955,0-11.168-4.344-11.168-10.775
			c0-6.369,4.735-11.006,11.168-11.006c2.612,0,5.126,0.947,6.302,1.666v3.135c-1.24-0.947-3.886-2.154-6.4-2.154
			c-4.244,0-7.738,3.297-7.738,8.098c0,4.637,3.036,8.359,7.738,8.359c1.274,0,2.711-0.164,3.56-0.523V176.5h-4.049l0.979-2.383
			h6.041v11.461L141.267,184.566z"/>
		<path fill="#FFFFFF" d="M158.372,185.121h-10.646v-20.965h11.364l-0.98,2.416h-7.281v6.729h6.857l-0.947,2.383h-5.91v6.922h8.85
			L158.372,185.121z"/>
		<path fill="#FFFFFF" d="M162.938,185.121v-19.135l-1.307-1.83h3.854l7.347,10.352l7.902-10.352h1.764v20.965h-3.103v-15.445
			l-7.086,9.436l-6.759-9.469v15.479H162.938z"/>
		<path fill="#FFFFFF" d="M197.963,185.121h-10.646v-20.965h11.364l-0.979,2.416h-7.282v6.729h6.857l-0.947,2.383h-5.91v6.922h8.849
			L197.963,185.121z"/>
		<path fill="#FFFFFF" d="M202.141,185.121v-20.965h3.103v20.965H202.141z"/>
		<path fill="#FFFFFF" d="M224.841,185.121l-11.984-15.055v15.055h-2.612V166.77l-2.09-2.613h3.919l11.56,14.467v-14.467h2.645
			v20.965H224.841z"/>
		<path fill="#FFFFFF" d="M237.367,185.545c-2.514,0-4.702-0.424-6.27-0.85v-20.213c1.698-0.326,3.625-0.652,6.303-0.652
			c6.727,0,10.775,4.213,10.775,10.906C248.176,181.137,243.931,185.545,237.367,185.545z M236.584,166.182H234.2v16.49
			c0.653,0.162,1.992,0.457,3.167,0.457c4.768,0,7.479-4.082,7.479-8.359C244.846,169.707,241.874,166.182,236.584,166.182z"/>
		<path fill="#FFFFFF" d="M262.146,185.121h-10.646v-20.965h11.364l-0.979,2.416h-7.282v6.729h6.857l-0.947,2.383h-5.91v6.922h8.849
			L262.146,185.121z"/>
		<path fill="#FFFFFF" d="M36.044,225.42H22.328v-28.223h4.177v24.838h11.298L36.044,225.42z"/>
		<path fill="#FFFFFF" d="M40.669,225.42v-28.223h4.177v28.223H40.669z"/>
		<path fill="#FFFFFF" d="M63.696,225.947c-9.057,0-14.596-6.111-14.596-14.42c0-8.572,5.936-14.814,14.596-14.814
			c3.517,0,6.901,1.275,8.484,2.242v4.221c-1.671-1.275-5.231-2.902-8.616-2.902c-5.715,0-9.979,4.133-9.979,10.902
			c0,6.199,4.221,11.078,9.979,11.078c3.473,0,6.594-1.275,8.616-2.9v4.307C70.598,224.672,67.213,225.947,63.696,225.947z"/>
		<path fill="#FFFFFF" d="M95.119,225.42v-12.926h-13.76v12.926h-4.177v-28.223h4.177v11.869h13.76v-11.869h4.176v28.223H95.119z"/>
		<path fill="#FFFFFF" d="M122.472,200.625h-7.693v24.795h-4.176v-24.795h-8.396v-3.428h21.585L122.472,200.625z"/>
		<path fill="#FFFFFF" d="M140.614,225.42h-14.331v-28.223h15.299l-1.319,3.252h-9.803v9.057h9.231l-1.274,3.209h-7.957v9.32h11.913
			L140.614,225.42z"/>
		<path fill="#FFFFFF" d="M166.996,225.42l-16.134-20.266v20.266h-3.517v-24.707l-2.813-3.516h5.274l15.562,19.475v-19.475h3.561
			v28.223H166.996z"/>
		<path fill="#FFFFFF" d="M183.762,226.035c-3.385,0-7.121-0.791-8.484-1.188v-27.211c1.935-0.439,4.836-0.836,8.133-0.836
			c5.539,0,9.408,2.857,9.408,6.945c0,3.957-2.813,5.979-4.748,6.814c3.648,0.924,5.715,3.473,5.715,7.342
			C193.785,222.957,189.564,226.035,183.762,226.035z M182.136,199.922h-2.682v9.891c2.55-0.043,6.286,0,6.286,0
			c1.319-0.879,2.682-2.682,2.682-5.186C188.422,201.77,186.048,199.922,182.136,199.922z M182.927,212.67h-3.473v9.408
			c0.396,0.176,1.538,0.703,3.78,0.703c3.693,0,6.066-1.934,6.066-5.275C189.301,214.166,186.796,212.67,182.927,212.67z"/>
		<path fill="#FFFFFF" d="M213.026,225.42h-14.331v-28.223h15.299l-1.319,3.252h-9.803v9.057h9.231l-1.274,3.209h-7.957v9.32h11.913
			L213.026,225.42z"/>
		<path fill="#FFFFFF" d="M235.077,225.42l-8.221-11.43l-4.176-0.045v11.475h-4.177v-27.783c2.242-0.439,4.309-0.879,7.825-0.879
			c5.715,0,10.023,2.637,10.023,8c0,4.439-3.562,7.033-5.671,7.912l9.671,12.75H235.077z M225.143,199.922h-2.462v10.99h5.715
			c1.494-0.791,3.736-2.77,3.736-5.758C232.132,201.461,229.89,199.922,225.143,199.922z"/>
		<path fill="#FFFFFF" d="M260.984,224.672c-1.318,0.748-3.648,1.363-6.242,1.363c-9.364,0-15.035-5.848-15.035-14.508
			c0-8.572,6.375-14.814,15.035-14.814c3.517,0,6.901,1.275,8.484,2.242v4.221c-1.671-1.275-5.231-2.902-8.616-2.902
			c-5.715,0-10.419,4.441-10.419,10.902c0,6.242,4.089,11.254,10.419,11.254c1.714,0,3.648-0.219,4.791-0.703v-7.912h-5.45
			l1.318-3.209h8.133v15.43L260.984,224.672z"/>
	</g>
</g>
</svg>
